%TF.GenerationSoftware,KiCad,Pcbnew,(6.0.4)*%
%TF.CreationDate,2022-04-17T12:33:45-05:00*%
%TF.ProjectId,40p-ide-to-44p-dom,3430702d-6964-4652-9d74-6f2d3434702d,rev?*%
%TF.SameCoordinates,Original*%
%TF.FileFunction,Legend,Top*%
%TF.FilePolarity,Positive*%
%FSLAX46Y46*%
G04 Gerber Fmt 4.6, Leading zero omitted, Abs format (unit mm)*
G04 Created by KiCad (PCBNEW (6.0.4)) date 2022-04-17 12:33:45*
%MOMM*%
%LPD*%
G01*
G04 APERTURE LIST*
%ADD10C,0.200000*%
%ADD11C,0.300000*%
%ADD12C,0.120000*%
G04 APERTURE END LIST*
D10*
X159694571Y-107934285D02*
X159694571Y-108696190D01*
X159313619Y-108315238D02*
X160075523Y-108315238D01*
X160313619Y-109648571D02*
X160313619Y-109172380D01*
X159837428Y-109124761D01*
X159885047Y-109172380D01*
X159932666Y-109267619D01*
X159932666Y-109505714D01*
X159885047Y-109600952D01*
X159837428Y-109648571D01*
X159742190Y-109696190D01*
X159504095Y-109696190D01*
X159408857Y-109648571D01*
X159361238Y-109600952D01*
X159313619Y-109505714D01*
X159313619Y-109267619D01*
X159361238Y-109172380D01*
X159408857Y-109124761D01*
X160313619Y-109981904D02*
X159313619Y-110315238D01*
X160313619Y-110648571D01*
D11*
X158829428Y-62313428D02*
X159686571Y-62313428D01*
X159258000Y-62313428D02*
X159258000Y-63813428D01*
X159400857Y-63599142D01*
X159543714Y-63456285D01*
X159686571Y-63384857D01*
D10*
X159726285Y-69256857D02*
X158916761Y-69256857D01*
X158821523Y-69209238D01*
X158773904Y-69161619D01*
X158726285Y-69066380D01*
X158726285Y-68923523D01*
X158773904Y-68828285D01*
X159107238Y-69256857D02*
X159059619Y-69161619D01*
X159059619Y-68971142D01*
X159107238Y-68875904D01*
X159154857Y-68828285D01*
X159250095Y-68780666D01*
X159535809Y-68780666D01*
X159631047Y-68828285D01*
X159678666Y-68875904D01*
X159726285Y-68971142D01*
X159726285Y-69161619D01*
X159678666Y-69256857D01*
X159059619Y-69733047D02*
X159726285Y-69733047D01*
X160059619Y-69733047D02*
X160012000Y-69685428D01*
X159964380Y-69733047D01*
X160012000Y-69780666D01*
X160059619Y-69733047D01*
X159964380Y-69733047D01*
X159726285Y-70066380D02*
X159726285Y-70447333D01*
X160059619Y-70209238D02*
X159202476Y-70209238D01*
X159107238Y-70256857D01*
X159059619Y-70352095D01*
X159059619Y-70447333D01*
X159059619Y-70780666D02*
X160059619Y-70780666D01*
X159059619Y-71209238D02*
X159583428Y-71209238D01*
X159678666Y-71161619D01*
X159726285Y-71066380D01*
X159726285Y-70923523D01*
X159678666Y-70828285D01*
X159631047Y-70780666D01*
X159726285Y-72114000D02*
X159059619Y-72114000D01*
X159726285Y-71685428D02*
X159202476Y-71685428D01*
X159107238Y-71733047D01*
X159059619Y-71828285D01*
X159059619Y-71971142D01*
X159107238Y-72066380D01*
X159154857Y-72114000D01*
X159059619Y-72590190D02*
X160059619Y-72590190D01*
X159678666Y-72590190D02*
X159726285Y-72685428D01*
X159726285Y-72875904D01*
X159678666Y-72971142D01*
X159631047Y-73018761D01*
X159535809Y-73066380D01*
X159250095Y-73066380D01*
X159154857Y-73018761D01*
X159107238Y-72971142D01*
X159059619Y-72875904D01*
X159059619Y-72685428D01*
X159107238Y-72590190D01*
X159154857Y-73494952D02*
X159107238Y-73542571D01*
X159059619Y-73494952D01*
X159107238Y-73447333D01*
X159154857Y-73494952D01*
X159059619Y-73494952D01*
X159107238Y-74399714D02*
X159059619Y-74304476D01*
X159059619Y-74114000D01*
X159107238Y-74018761D01*
X159154857Y-73971142D01*
X159250095Y-73923523D01*
X159535809Y-73923523D01*
X159631047Y-73971142D01*
X159678666Y-74018761D01*
X159726285Y-74114000D01*
X159726285Y-74304476D01*
X159678666Y-74399714D01*
X159059619Y-74971142D02*
X159107238Y-74875904D01*
X159154857Y-74828285D01*
X159250095Y-74780666D01*
X159535809Y-74780666D01*
X159631047Y-74828285D01*
X159678666Y-74875904D01*
X159726285Y-74971142D01*
X159726285Y-75114000D01*
X159678666Y-75209238D01*
X159631047Y-75256857D01*
X159535809Y-75304476D01*
X159250095Y-75304476D01*
X159154857Y-75256857D01*
X159107238Y-75209238D01*
X159059619Y-75114000D01*
X159059619Y-74971142D01*
X159059619Y-75733047D02*
X159726285Y-75733047D01*
X159631047Y-75733047D02*
X159678666Y-75780666D01*
X159726285Y-75875904D01*
X159726285Y-76018761D01*
X159678666Y-76114000D01*
X159583428Y-76161619D01*
X159059619Y-76161619D01*
X159583428Y-76161619D02*
X159678666Y-76209238D01*
X159726285Y-76304476D01*
X159726285Y-76447333D01*
X159678666Y-76542571D01*
X159583428Y-76590190D01*
X159059619Y-76590190D01*
X160107238Y-77780666D02*
X158821523Y-76923523D01*
X159059619Y-78542571D02*
X160059619Y-78542571D01*
X159107238Y-78542571D02*
X159059619Y-78447333D01*
X159059619Y-78256857D01*
X159107238Y-78161619D01*
X159154857Y-78114000D01*
X159250095Y-78066380D01*
X159535809Y-78066380D01*
X159631047Y-78114000D01*
X159678666Y-78161619D01*
X159726285Y-78256857D01*
X159726285Y-78447333D01*
X159678666Y-78542571D01*
X159726285Y-79018761D02*
X158869142Y-79018761D01*
X158773904Y-78971142D01*
X158726285Y-78875904D01*
X158726285Y-78828285D01*
X160059619Y-79018761D02*
X160012000Y-78971142D01*
X159964380Y-79018761D01*
X160012000Y-79066380D01*
X160059619Y-79018761D01*
X159964380Y-79018761D01*
X159726285Y-79352095D02*
X159726285Y-79733047D01*
X160059619Y-79494952D02*
X159202476Y-79494952D01*
X159107238Y-79542571D01*
X159059619Y-79637809D01*
X159059619Y-79733047D01*
X159107238Y-80447333D02*
X159059619Y-80352095D01*
X159059619Y-80161619D01*
X159107238Y-80066380D01*
X159202476Y-80018761D01*
X159583428Y-80018761D01*
X159678666Y-80066380D01*
X159726285Y-80161619D01*
X159726285Y-80352095D01*
X159678666Y-80447333D01*
X159583428Y-80494952D01*
X159488190Y-80494952D01*
X159392952Y-80018761D01*
X159059619Y-80923523D02*
X159726285Y-80923523D01*
X159535809Y-80923523D02*
X159631047Y-80971142D01*
X159678666Y-81018761D01*
X159726285Y-81114000D01*
X159726285Y-81209238D01*
X159107238Y-81494952D02*
X159059619Y-81590190D01*
X159059619Y-81780666D01*
X159107238Y-81875904D01*
X159202476Y-81923523D01*
X159250095Y-81923523D01*
X159345333Y-81875904D01*
X159392952Y-81780666D01*
X159392952Y-81637809D01*
X159440571Y-81542571D01*
X159535809Y-81494952D01*
X159583428Y-81494952D01*
X159678666Y-81542571D01*
X159726285Y-81637809D01*
X159726285Y-81780666D01*
X159678666Y-81875904D01*
X159726285Y-82209238D02*
X159726285Y-82590190D01*
X160059619Y-82352095D02*
X159202476Y-82352095D01*
X159107238Y-82399714D01*
X159059619Y-82494952D01*
X159059619Y-82590190D01*
X159107238Y-83304476D02*
X159059619Y-83209238D01*
X159059619Y-83018761D01*
X159107238Y-82923523D01*
X159202476Y-82875904D01*
X159583428Y-82875904D01*
X159678666Y-82923523D01*
X159726285Y-83018761D01*
X159726285Y-83209238D01*
X159678666Y-83304476D01*
X159583428Y-83352095D01*
X159488190Y-83352095D01*
X159392952Y-82875904D01*
X159107238Y-84161619D02*
X159059619Y-84066380D01*
X159059619Y-83875904D01*
X159107238Y-83780666D01*
X159202476Y-83733047D01*
X159583428Y-83733047D01*
X159678666Y-83780666D01*
X159726285Y-83875904D01*
X159726285Y-84066380D01*
X159678666Y-84161619D01*
X159583428Y-84209238D01*
X159488190Y-84209238D01*
X159392952Y-83733047D01*
X159726285Y-85066380D02*
X158916761Y-85066380D01*
X158821523Y-85018761D01*
X158773904Y-84971142D01*
X158726285Y-84875904D01*
X158726285Y-84733047D01*
X158773904Y-84637809D01*
X159107238Y-85066380D02*
X159059619Y-84971142D01*
X159059619Y-84780666D01*
X159107238Y-84685428D01*
X159154857Y-84637809D01*
X159250095Y-84590190D01*
X159535809Y-84590190D01*
X159631047Y-84637809D01*
X159678666Y-84685428D01*
X159726285Y-84780666D01*
X159726285Y-84971142D01*
X159678666Y-85066380D01*
X159107238Y-85971142D02*
X159059619Y-85875904D01*
X159059619Y-85685428D01*
X159107238Y-85590190D01*
X159154857Y-85542571D01*
X159250095Y-85494952D01*
X159535809Y-85494952D01*
X159631047Y-85542571D01*
X159678666Y-85590190D01*
X159726285Y-85685428D01*
X159726285Y-85875904D01*
X159678666Y-85971142D01*
X160107238Y-87114000D02*
X158821523Y-86256857D01*
X159726285Y-87875904D02*
X159059619Y-87875904D01*
X160107238Y-87637809D02*
X159392952Y-87399714D01*
X159392952Y-88018761D01*
X160059619Y-88590190D02*
X160059619Y-88685428D01*
X160012000Y-88780666D01*
X159964380Y-88828285D01*
X159869142Y-88875904D01*
X159678666Y-88923523D01*
X159440571Y-88923523D01*
X159250095Y-88875904D01*
X159154857Y-88828285D01*
X159107238Y-88780666D01*
X159059619Y-88685428D01*
X159059619Y-88590190D01*
X159107238Y-88494952D01*
X159154857Y-88447333D01*
X159250095Y-88399714D01*
X159440571Y-88352095D01*
X159678666Y-88352095D01*
X159869142Y-88399714D01*
X159964380Y-88447333D01*
X160012000Y-88494952D01*
X160059619Y-88590190D01*
X159726285Y-89352095D02*
X158726285Y-89352095D01*
X159678666Y-89352095D02*
X159726285Y-89447333D01*
X159726285Y-89637809D01*
X159678666Y-89733047D01*
X159631047Y-89780666D01*
X159535809Y-89828285D01*
X159250095Y-89828285D01*
X159154857Y-89780666D01*
X159107238Y-89733047D01*
X159059619Y-89637809D01*
X159059619Y-89447333D01*
X159107238Y-89352095D01*
X159440571Y-90256857D02*
X159440571Y-91018761D01*
X159059619Y-91494952D02*
X159726285Y-91494952D01*
X160059619Y-91494952D02*
X160012000Y-91447333D01*
X159964380Y-91494952D01*
X160012000Y-91542571D01*
X160059619Y-91494952D01*
X159964380Y-91494952D01*
X159059619Y-92399714D02*
X160059619Y-92399714D01*
X159107238Y-92399714D02*
X159059619Y-92304476D01*
X159059619Y-92114000D01*
X159107238Y-92018761D01*
X159154857Y-91971142D01*
X159250095Y-91923523D01*
X159535809Y-91923523D01*
X159631047Y-91971142D01*
X159678666Y-92018761D01*
X159726285Y-92114000D01*
X159726285Y-92304476D01*
X159678666Y-92399714D01*
X159107238Y-93256857D02*
X159059619Y-93161619D01*
X159059619Y-92971142D01*
X159107238Y-92875904D01*
X159202476Y-92828285D01*
X159583428Y-92828285D01*
X159678666Y-92875904D01*
X159726285Y-92971142D01*
X159726285Y-93161619D01*
X159678666Y-93256857D01*
X159583428Y-93304476D01*
X159488190Y-93304476D01*
X159392952Y-92828285D01*
X159440571Y-93733047D02*
X159440571Y-94494952D01*
X159726285Y-94828285D02*
X159726285Y-95209238D01*
X160059619Y-94971142D02*
X159202476Y-94971142D01*
X159107238Y-95018761D01*
X159059619Y-95114000D01*
X159059619Y-95209238D01*
X159059619Y-95685428D02*
X159107238Y-95590190D01*
X159154857Y-95542571D01*
X159250095Y-95494952D01*
X159535809Y-95494952D01*
X159631047Y-95542571D01*
X159678666Y-95590190D01*
X159726285Y-95685428D01*
X159726285Y-95828285D01*
X159678666Y-95923523D01*
X159631047Y-95971142D01*
X159535809Y-96018761D01*
X159250095Y-96018761D01*
X159154857Y-95971142D01*
X159107238Y-95923523D01*
X159059619Y-95828285D01*
X159059619Y-95685428D01*
X159440571Y-96447333D02*
X159440571Y-97209238D01*
X159726285Y-98114000D02*
X159059619Y-98114000D01*
X160107238Y-97875904D02*
X159392952Y-97637809D01*
X159392952Y-98256857D01*
X159726285Y-99066380D02*
X159059619Y-99066380D01*
X160107238Y-98828285D02*
X159392952Y-98590190D01*
X159392952Y-99209238D01*
X159726285Y-99590190D02*
X158726285Y-99590190D01*
X159678666Y-99590190D02*
X159726285Y-99685428D01*
X159726285Y-99875904D01*
X159678666Y-99971142D01*
X159631047Y-100018761D01*
X159535809Y-100066380D01*
X159250095Y-100066380D01*
X159154857Y-100018761D01*
X159107238Y-99971142D01*
X159059619Y-99875904D01*
X159059619Y-99685428D01*
X159107238Y-99590190D01*
X159440571Y-100494952D02*
X159440571Y-101256857D01*
X159059619Y-102161619D02*
X160059619Y-102161619D01*
X159107238Y-102161619D02*
X159059619Y-102066380D01*
X159059619Y-101875904D01*
X159107238Y-101780666D01*
X159154857Y-101733047D01*
X159250095Y-101685428D01*
X159535809Y-101685428D01*
X159631047Y-101733047D01*
X159678666Y-101780666D01*
X159726285Y-101875904D01*
X159726285Y-102066380D01*
X159678666Y-102161619D01*
X159059619Y-102780666D02*
X159107238Y-102685428D01*
X159154857Y-102637809D01*
X159250095Y-102590190D01*
X159535809Y-102590190D01*
X159631047Y-102637809D01*
X159678666Y-102685428D01*
X159726285Y-102780666D01*
X159726285Y-102923523D01*
X159678666Y-103018761D01*
X159631047Y-103066380D01*
X159535809Y-103114000D01*
X159250095Y-103114000D01*
X159154857Y-103066380D01*
X159107238Y-103018761D01*
X159059619Y-102923523D01*
X159059619Y-102780666D01*
X159059619Y-103542571D02*
X159726285Y-103542571D01*
X159631047Y-103542571D02*
X159678666Y-103590190D01*
X159726285Y-103685428D01*
X159726285Y-103828285D01*
X159678666Y-103923523D01*
X159583428Y-103971142D01*
X159059619Y-103971142D01*
X159583428Y-103971142D02*
X159678666Y-104018761D01*
X159726285Y-104114000D01*
X159726285Y-104256857D01*
X159678666Y-104352095D01*
X159583428Y-104399714D01*
X159059619Y-104399714D01*
D12*
%TO.C,J2*%
X154974000Y-101702000D02*
X155414000Y-101702000D01*
X152464000Y-106062000D02*
X152874000Y-106062000D01*
X154974000Y-94082000D02*
X155414000Y-94082000D01*
X154974000Y-66142000D02*
X155414000Y-66142000D01*
X143834000Y-62386285D02*
X152464000Y-62386285D01*
X154974000Y-67962000D02*
X155414000Y-67962000D01*
X154974000Y-108602000D02*
X155414000Y-108602000D01*
X154974000Y-85742000D02*
X155414000Y-85742000D01*
X152464000Y-73042000D02*
X152874000Y-73042000D01*
X143834000Y-61912000D02*
X143834000Y-112832000D01*
X154974000Y-111142000D02*
X155414000Y-111142000D01*
X143834000Y-87372000D02*
X152464000Y-87372000D01*
X143834000Y-100072000D02*
X152464000Y-100072000D01*
X143834000Y-69592000D02*
X152464000Y-69592000D01*
X143834000Y-84832000D02*
X152464000Y-84832000D01*
X154974000Y-78842000D02*
X155414000Y-78842000D01*
X154974000Y-88282000D02*
X155414000Y-88282000D01*
X152464000Y-111142000D02*
X152874000Y-111142000D01*
X143834000Y-64512000D02*
X152464000Y-64512000D01*
X143834000Y-63331045D02*
X152464000Y-63331045D01*
X152464000Y-67962000D02*
X152874000Y-67962000D01*
X152464000Y-63602000D02*
X152874000Y-63602000D01*
X152464000Y-71222000D02*
X152874000Y-71222000D01*
X154974000Y-104242000D02*
X155414000Y-104242000D01*
X157574000Y-61912000D02*
X157574000Y-63242000D01*
X152464000Y-93362000D02*
X152874000Y-93362000D01*
X143834000Y-63685330D02*
X152464000Y-63685330D01*
X143834000Y-61912000D02*
X152464000Y-61912000D01*
X143834000Y-63449140D02*
X152464000Y-63449140D01*
X143834000Y-112832000D02*
X152464000Y-112832000D01*
X152464000Y-100982000D02*
X152874000Y-100982000D01*
X152464000Y-95902000D02*
X152874000Y-95902000D01*
X143834000Y-105152000D02*
X152464000Y-105152000D01*
X154974000Y-80662000D02*
X155414000Y-80662000D01*
X154974000Y-78122000D02*
X155414000Y-78122000D01*
X154974000Y-106062000D02*
X155414000Y-106062000D01*
X154974000Y-95902000D02*
X155414000Y-95902000D01*
X152464000Y-68682000D02*
X152874000Y-68682000D01*
X143834000Y-94992000D02*
X152464000Y-94992000D01*
X143834000Y-79752000D02*
X152464000Y-79752000D01*
X152464000Y-98442000D02*
X152874000Y-98442000D01*
X152464000Y-86462000D02*
X152874000Y-86462000D01*
X156464000Y-61912000D02*
X157574000Y-61912000D01*
X152464000Y-75582000D02*
X152874000Y-75582000D01*
X143834000Y-64275805D02*
X152464000Y-64275805D01*
X143834000Y-62622475D02*
X152464000Y-62622475D01*
X154974000Y-100982000D02*
X155414000Y-100982000D01*
X143834000Y-77212000D02*
X152464000Y-77212000D01*
X143834000Y-92452000D02*
X152464000Y-92452000D01*
X154974000Y-70502000D02*
X155414000Y-70502000D01*
X143834000Y-63567235D02*
X152464000Y-63567235D01*
X154974000Y-90822000D02*
X155414000Y-90822000D01*
X154974000Y-86462000D02*
X155414000Y-86462000D01*
X152464000Y-91542000D02*
X152874000Y-91542000D01*
X143834000Y-97532000D02*
X152464000Y-97532000D01*
X152464000Y-66142000D02*
X152874000Y-66142000D01*
X154974000Y-111862000D02*
X155414000Y-111862000D01*
X143834000Y-67052000D02*
X152464000Y-67052000D01*
X143834000Y-63803425D02*
X152464000Y-63803425D01*
X152464000Y-78842000D02*
X152874000Y-78842000D01*
X152464000Y-104242000D02*
X152874000Y-104242000D01*
X154974000Y-68682000D02*
X155414000Y-68682000D01*
X143834000Y-62150095D02*
X152464000Y-62150095D01*
X143834000Y-64157710D02*
X152464000Y-64157710D01*
X152464000Y-99162000D02*
X152874000Y-99162000D01*
X143834000Y-62268190D02*
X152464000Y-62268190D01*
X154974000Y-93362000D02*
X155414000Y-93362000D01*
X152464000Y-85742000D02*
X152874000Y-85742000D01*
X143834000Y-62504380D02*
X152464000Y-62504380D01*
X143834000Y-82292000D02*
X152464000Y-82292000D01*
X152464000Y-89002000D02*
X152874000Y-89002000D01*
X143834000Y-74672000D02*
X152464000Y-74672000D01*
X154974000Y-83202000D02*
X155414000Y-83202000D01*
X152464000Y-80662000D02*
X152874000Y-80662000D01*
X154974000Y-109322000D02*
X155414000Y-109322000D01*
X152464000Y-111862000D02*
X152874000Y-111862000D01*
X152464000Y-70502000D02*
X152874000Y-70502000D01*
X154974000Y-73762000D02*
X155414000Y-73762000D01*
X154974000Y-103522000D02*
X155414000Y-103522000D01*
X143834000Y-64039615D02*
X152464000Y-64039615D01*
X154974000Y-96622000D02*
X155414000Y-96622000D01*
X152464000Y-78122000D02*
X152874000Y-78122000D01*
X154974000Y-106782000D02*
X155414000Y-106782000D01*
X154974000Y-83922000D02*
X155414000Y-83922000D01*
X154974000Y-98442000D02*
X155414000Y-98442000D01*
X154974000Y-62882000D02*
X155354000Y-62882000D01*
X152464000Y-96622000D02*
X152874000Y-96622000D01*
X152464000Y-94082000D02*
X152874000Y-94082000D01*
X154974000Y-73042000D02*
X155414000Y-73042000D01*
X143834000Y-62740570D02*
X152464000Y-62740570D01*
X143834000Y-62858665D02*
X152464000Y-62858665D01*
X154974000Y-89002000D02*
X155414000Y-89002000D01*
X154974000Y-63602000D02*
X155354000Y-63602000D01*
X152464000Y-81382000D02*
X152874000Y-81382000D01*
X152464000Y-103522000D02*
X152874000Y-103522000D01*
X154974000Y-75582000D02*
X155414000Y-75582000D01*
X143834000Y-63921520D02*
X152464000Y-63921520D01*
X143834000Y-63094855D02*
X152464000Y-63094855D01*
X152464000Y-62882000D02*
X152874000Y-62882000D01*
X152464000Y-76302000D02*
X152874000Y-76302000D01*
X154974000Y-71222000D02*
X155414000Y-71222000D01*
X143834000Y-107692000D02*
X152464000Y-107692000D01*
X143834000Y-89912000D02*
X152464000Y-89912000D01*
X152464000Y-73762000D02*
X152874000Y-73762000D01*
X154974000Y-81382000D02*
X155414000Y-81382000D01*
X143834000Y-64393900D02*
X152464000Y-64393900D01*
X143834000Y-63212950D02*
X152464000Y-63212950D01*
X152464000Y-109322000D02*
X152874000Y-109322000D01*
X152464000Y-101702000D02*
X152874000Y-101702000D01*
X152464000Y-83922000D02*
X152874000Y-83922000D01*
X152464000Y-90822000D02*
X152874000Y-90822000D01*
X152464000Y-108602000D02*
X152874000Y-108602000D01*
X152464000Y-83202000D02*
X152874000Y-83202000D01*
X143834000Y-62032000D02*
X152464000Y-62032000D01*
X143834000Y-62976760D02*
X152464000Y-62976760D01*
X152464000Y-61912000D02*
X152464000Y-112832000D01*
X152464000Y-65422000D02*
X152874000Y-65422000D01*
X143834000Y-110232000D02*
X152464000Y-110232000D01*
X154974000Y-76302000D02*
X155414000Y-76302000D01*
X154974000Y-99162000D02*
X155414000Y-99162000D01*
X143834000Y-72132000D02*
X152464000Y-72132000D01*
X154974000Y-65422000D02*
X155414000Y-65422000D01*
X152464000Y-106782000D02*
X152874000Y-106782000D01*
X154974000Y-91542000D02*
X155414000Y-91542000D01*
X143834000Y-102612000D02*
X152464000Y-102612000D01*
X152464000Y-88282000D02*
X152874000Y-88282000D01*
%TO.C,J3*%
X172349000Y-112389000D02*
X166349000Y-112389000D01*
X166349000Y-109089000D02*
X172349000Y-109089000D01*
X160979000Y-108199000D02*
X162249000Y-108199000D01*
X163291929Y-111629000D02*
X163689000Y-111629000D01*
X166349000Y-109749000D02*
X172349000Y-109749000D01*
X166349000Y-109509000D02*
X172349000Y-109509000D01*
X166349000Y-108139000D02*
X163689000Y-108139000D01*
X163689000Y-113339000D02*
X166349000Y-113339000D01*
X163689000Y-110739000D02*
X166349000Y-110739000D01*
X163359000Y-109849000D02*
X163689000Y-109849000D01*
X166349000Y-113339000D02*
X166349000Y-108139000D01*
X172349000Y-111629000D02*
X172349000Y-112389000D01*
X163359000Y-109089000D02*
X163689000Y-109089000D01*
X166349000Y-109269000D02*
X172349000Y-109269000D01*
X172349000Y-109089000D02*
X172349000Y-109849000D01*
X160979000Y-109469000D02*
X160979000Y-108199000D01*
X166349000Y-109629000D02*
X172349000Y-109629000D01*
X172349000Y-109849000D02*
X166349000Y-109849000D01*
X163689000Y-108139000D02*
X163689000Y-113339000D01*
X166349000Y-109389000D02*
X172349000Y-109389000D01*
X163291929Y-112389000D02*
X163689000Y-112389000D01*
X166349000Y-109149000D02*
X172349000Y-109149000D01*
X166349000Y-111629000D02*
X172349000Y-111629000D01*
%TO.C,J1*%
X161008000Y-62014000D02*
X162068000Y-62014000D01*
X163068000Y-64074000D02*
X163068000Y-62014000D01*
X161008000Y-106134000D02*
X165128000Y-106134000D01*
X161008000Y-63074000D02*
X161008000Y-62014000D01*
X161008000Y-64074000D02*
X163068000Y-64074000D01*
X163068000Y-62014000D02*
X165128000Y-62014000D01*
X165128000Y-62014000D02*
X165128000Y-106134000D01*
X161008000Y-64074000D02*
X161008000Y-106134000D01*
%TD*%
M02*
