M48
; DRILL file {KiCad (6.0.4)} date Sun Apr 17 12:33:49 2022
; FORMAT={-:-/ absolute / inch / decimal}
; #@! TF.CreationDate,2022-04-17T12:33:49-05:00
; #@! TF.GenerationSoftware,Kicad,Pcbnew,(6.0.4)
; #@! TF.FileFunction,MixedPlating,1,2
FMAT,2
INCH
; #@! TA.AperFunction,Plated,PTH,ComponentDrill
T1C0.0315
; #@! TA.AperFunction,Plated,PTH,ComponentDrill
T2C0.0394
%
G90
G05
T1
X6.3806Y-2.4832
X6.3806Y-2.562
X6.3806Y-2.6407
X6.3806Y-2.7194
X6.3806Y-2.7982
X6.3806Y-2.8769
X6.3806Y-2.9557
X6.3806Y-3.0344
X6.3806Y-3.1131
X6.3806Y-3.1919
X6.3806Y-3.2706
X6.3806Y-3.3494
X6.3806Y-3.4281
X6.3806Y-3.5069
X6.3806Y-3.5856
X6.3806Y-3.6643
X6.3806Y-3.7431
X6.3806Y-3.8218
X6.3806Y-3.9006
X6.3806Y-3.9793
X6.3806Y-4.058
X6.3806Y-4.1368
X6.4594Y-2.4832
X6.4594Y-2.562
X6.4594Y-2.6407
X6.4594Y-2.7194
X6.4594Y-2.7982
X6.4594Y-2.8769
X6.4594Y-2.9557
X6.4594Y-3.0344
X6.4594Y-3.1131
X6.4594Y-3.1919
X6.4594Y-3.2706
X6.4594Y-3.3494
X6.4594Y-3.4281
X6.4594Y-3.5069
X6.4594Y-3.5856
X6.4594Y-3.6643
X6.4594Y-3.7431
X6.4594Y-3.8218
X6.4594Y-3.9006
X6.4594Y-3.9793
X6.4594Y-4.058
X6.4594Y-4.1368
T2
X6.06Y-2.4898
X6.06Y-2.5898
X6.06Y-2.6898
X6.06Y-2.7898
X6.06Y-2.8898
X6.06Y-2.9898
X6.06Y-3.0898
X6.06Y-3.1898
X6.06Y-3.2898
X6.06Y-3.3898
X6.06Y-3.4898
X6.06Y-3.5898
X6.06Y-3.6898
X6.06Y-3.7898
X6.06Y-3.8898
X6.06Y-3.9898
X6.06Y-4.0898
X6.06Y-4.1898
X6.06Y-4.2898
X6.06Y-4.3898
X6.16Y-2.4898
X6.16Y-2.5898
X6.16Y-2.6898
X6.16Y-2.7898
X6.16Y-2.8898
X6.16Y-2.9898
X6.16Y-3.0898
X6.16Y-3.1898
X6.16Y-3.2898
X6.16Y-3.3898
X6.16Y-3.4898
X6.16Y-3.5898
X6.16Y-3.6898
X6.16Y-3.7898
X6.16Y-3.8898
X6.16Y-3.9898
X6.16Y-4.0898
X6.16Y-4.1898
X6.16Y-4.2898
X6.16Y-4.3898
X6.3878Y-4.3098
X6.3878Y-4.4098
T0
M30
